<svg xmlns="http://www.w3.org/2000/svg" viewBox="0 0 800 600" width="800" height="600">
  <title>61-90-20_02-02-FIG_001 — Stator Vane Geometry (Plan View)</title>
  <desc>ATA 61 Ducted Fan Stator Assembly — Vane Geometry Overview</desc>
  
  <!-- Background -->
  <rect width="800" height="600" fill="#f8f9fa"/>
  
  <!-- Title Block -->
  <rect x="10" y="10" width="780" height="50" fill="#006633" rx="5"/>
  <text x="400" y="42" font-family="Arial, sans-serif" font-size="20" fill="white" text-anchor="middle" font-weight="bold">
    61-90-20_02-02-FIG_001 — Stator Vane Geometry
  </text>
  
  <!-- Hub Ring -->
  <circle cx="400" cy="320" r="85" fill="none" stroke="#333" stroke-width="8"/>
  <text x="400" y="325" font-family="Arial, sans-serif" font-size="10" fill="#333" text-anchor="middle">HUB RING</text>
  <text x="400" y="338" font-family="Arial, sans-serif" font-size="9" fill="#666" text-anchor="middle">Ø 400 mm</text>
  
  <!-- Outer Ring -->
  <circle cx="400" cy="320" r="240" fill="none" stroke="#333" stroke-width="6"/>
  
  <!-- Stator vane representations (21 vanes) -->
  <g id="vanes" fill="#5fb55f" stroke="#006633" stroke-width="1">
    <!-- 21 vanes at 17.14° intervals -->
    <rect x="395" y="88" width="10" height="145" rx="2" transform="rotate(0, 400, 320)"/>
    <rect x="395" y="88" width="10" height="145" rx="2" transform="rotate(17.14, 400, 320)"/>
    <rect x="395" y="88" width="10" height="145" rx="2" transform="rotate(34.29, 400, 320)"/>
    <rect x="395" y="88" width="10" height="145" rx="2" transform="rotate(51.43, 400, 320)"/>
    <rect x="395" y="88" width="10" height="145" rx="2" transform="rotate(68.57, 400, 320)"/>
    <rect x="395" y="88" width="10" height="145" rx="2" transform="rotate(85.71, 400, 320)"/>
    <rect x="395" y="88" width="10" height="145" rx="2" transform="rotate(102.86, 400, 320)"/>
    <rect x="395" y="88" width="10" height="145" rx="2" transform="rotate(120, 400, 320)"/>
    <rect x="395" y="88" width="10" height="145" rx="2" transform="rotate(137.14, 400, 320)"/>
    <rect x="395" y="88" width="10" height="145" rx="2" transform="rotate(154.29, 400, 320)"/>
    <rect x="395" y="88" width="10" height="145" rx="2" transform="rotate(171.43, 400, 320)"/>
    <rect x="395" y="88" width="10" height="145" rx="2" transform="rotate(188.57, 400, 320)"/>
    <rect x="395" y="88" width="10" height="145" rx="2" transform="rotate(205.71, 400, 320)"/>
    <rect x="395" y="88" width="10" height="145" rx="2" transform="rotate(222.86, 400, 320)"/>
    <rect x="395" y="88" width="10" height="145" rx="2" transform="rotate(240, 400, 320)"/>
    <rect x="395" y="88" width="10" height="145" rx="2" transform="rotate(257.14, 400, 320)"/>
    <rect x="395" y="88" width="10" height="145" rx="2" transform="rotate(274.29, 400, 320)"/>
    <rect x="395" y="88" width="10" height="145" rx="2" transform="rotate(291.43, 400, 320)"/>
    <rect x="395" y="88" width="10" height="145" rx="2" transform="rotate(308.57, 400, 320)"/>
    <rect x="395" y="88" width="10" height="145" rx="2" transform="rotate(325.71, 400, 320)"/>
    <rect x="395" y="88" width="10" height="145" rx="2" transform="rotate(342.86, 400, 320)"/>
  </g>
  
  <!-- Dimension annotation -->
  <text x="400" y="570" font-family="Arial, sans-serif" font-size="11" fill="#006633" text-anchor="middle">
    21 Vanes @ 17.14° spacing | Outer Ø 1195 mm | Vane height 397 mm
  </text>
  
  <!-- Legend -->
  <rect x="620" y="480" width="170" height="100" fill="white" stroke="#333" stroke-width="1" rx="5"/>
  <text x="705" y="500" font-family="Arial, sans-serif" font-size="12" fill="#333" text-anchor="middle" font-weight="bold">LEGEND</text>
  <rect x="630" y="510" width="15" height="10" fill="#5fb55f"/>
  <text x="650" y="518" font-family="Arial, sans-serif" font-size="10" fill="#333">Stator Vane (×21)</text>
  <rect x="630" y="530" width="15" height="10" fill="none" stroke="#333" stroke-width="2"/>
  <text x="650" y="538" font-family="Arial, sans-serif" font-size="10" fill="#333">Hub/Outer Rings</text>
  <text x="630" y="560" font-family="Arial, sans-serif" font-size="9" fill="#666">Material: CFRP (AS4/8552)</text>
  
  <!-- Info Block -->
  <rect x="10" y="550" width="200" height="40" fill="white" stroke="#333" stroke-width="1"/>
  <text x="20" y="568" font-family="Arial, sans-serif" font-size="10" fill="#333">Part: PN-DF-STA-001</text>
  <text x="20" y="582" font-family="Arial, sans-serif" font-size="10" fill="#333">21 Vanes (Prime count)</text>
</svg>
