<?xml version="1.0" encoding="UTF-8"?>
<!-- ATA 02 Circularity Framework Diagram -->
<!-- AMPEL360-02-30-01-A-002 -->
<svg xmlns="http://www.w3.org/2000/svg" width="800" height="600" viewBox="0 0 800 600">
  <defs>
    <style>
      .title { font: bold 24px sans-serif; fill: #0066CC; }
      .subtitle { font: 16px sans-serif; fill: #333; }
      .box { fill: #E3F2FD; stroke: #0066CC; stroke-width: 2; }
      .label { font: 14px sans-serif; fill: #000; text-anchor: middle; }
      .arrow { stroke: #0066CC; stroke-width: 2; fill: none; marker-end: url(#arrowhead); }
    </style>
    <marker id="arrowhead" markerWidth="10" markerHeight="10" refX="9" refY="3" orient="auto">
      <polygon points="0 0, 10 3, 0 6" fill="#0066CC" />
    </marker>
  </defs>
  
  <text x="400" y="30" class="title" text-anchor="middle">ATA 02 Circularity Framework</text>
  <text x="400" y="55" class="subtitle" text-anchor="middle">Four Strategic Pillars for Digital Operations Sustainability</text>
  
  <!-- Four Pillars -->
  <rect x="50" y="100" width="150" height="120" class="box" rx="10"/>
  <text x="125" y="130" class="label">Pillar 1:</text>
  <text x="125" y="150" class="label" font-weight="bold">Resource</text>
  <text x="125" y="170" class="label" font-weight="bold">Optimization</text>
  <text x="125" y="195" class="label" font-size="11">Energy efficiency</text>
  <text x="125" y="210" class="label" font-size="11">Material reduction</text>
  
  <rect x="225" y="100" width="150" height="120" class="box" rx="10"/>
  <text x="300" y="130" class="label">Pillar 2:</text>
  <text x="300" y="150" class="label" font-weight="bold">Lifecycle</text>
  <text x="300" y="170" class="label" font-weight="bold">Extension</text>
  <text x="300" y="195" class="label" font-size="11">Modular design</text>
  <text x="300" y="210" class="label" font-size="11">Refurbishment</text>
  
  <rect x="400" y="100" width="150" height="120" class="box" rx="10"/>
  <text x="475" y="130" class="label">Pillar 3:</text>
  <text x="475" y="150" class="label" font-weight="bold">Circular</text>
  <text x="475" y="170" class="label" font-weight="bold">Flows</text>
  <text x="475" y="195" class="label" font-size="11">Reuse & recycling</text>
  <text x="475" y="210" class="label" font-size="11">Closed loops</text>
  
  <rect x="575" y="100" width="150" height="120" class="box" rx="10"/>
  <text x="650" y="130" class="label">Pillar 4:</text>
  <text x="650" y="150" class="label" font-weight="bold">Transparency &</text>
  <text x="650" y="170" class="label" font-weight="bold">Governance</text>
  <text x="650" y="195" class="label" font-size="11">Metrics & reporting</text>
  <text x="650" y="210" class="label" font-size="11">Accountability</text>
  
  <!-- Implementation Domains -->
  <text x="400" y="270" class="subtitle" text-anchor="middle">Eight Implementation Domains</text>
  
  <rect x="50" y="290" width="160" height="60" class="box" rx="5"/>
  <text x="130" y="318" class="label" font-size="12">Hardware Lifecycle</text>
  <text x="130" y="333" class="label" font-size="10">(02-30-02)</text>
  
  <rect x="230" y="290" width="160" height="60" class="box" rx="5"/>
  <text x="310" y="318" class="label" font-size="12">Data Lifecycle</text>
  <text x="310" y="333" class="label" font-size="10">(02-30-03)</text>
  
  <rect x="410" y="290" width="160" height="60" class="box" rx="5"/>
  <text x="490" y="318" class="label" font-size="12">Software Sustainability</text>
  <text x="490" y="333" class="label" font-size="10">(02-30-04)</text>
  
  <rect x="590" y="290" width="160" height="60" class="box" rx="5"/>
  <text x="670" y="318" class="label" font-size="12">Operational Carbon</text>
  <text x="670" y="333" class="label" font-size="10">(02-30-05)</text>
  
  <rect x="50" y="370" width="160" height="60" class="box" rx="5"/>
  <text x="130" y="398" class="label" font-size="12">DPP Integration</text>
  <text x="130" y="413" class="label" font-size="10">(02-30-06)</text>
  
  <rect x="230" y="370" width="160" height="60" class="box" rx="5"/>
  <text x="310" y="398" class="label" font-size="12">Repairability</text>
  <text x="310" y="413" class="label" font-size="10">(02-30-07)</text>
  
  <rect x="410" y="370" width="160" height="60" class="box" rx="5"/>
  <text x="490" y="398" class="label" font-size="12">Metrics & KPIs</text>
  <text x="490" y="413" class="label" font-size="10">(02-30-08)</text>
  
  <!-- Integration -->
  <rect x="250" y="480" width="300" height="80" fill="#FFF8DC" stroke="#FFA500" stroke-width="2" rx="10"/>
  <text x="400" y="505" class="label" font-weight="bold">Integration with Enterprise</text>
  <text x="400" y="525" class="label" font-size="12">ATA 99 Governance</text>
  <text x="400" y="545" class="label" font-size="12">ATA 100 Sustainability</text>
  
  <!-- Document Control -->
  <text x="10" y="590" font-size="10" fill="#666">AMPEL360-BWB-H2-Hy-E | ATA 02-30 Circularity | Generated with AI (GitHub Copilot) | 2025-11-21</text>
</svg>
