<?xml version="1.0" encoding="UTF-8"?>
<!--
Document ID: 53-IN-5000
Title: Overhead Bin Support Layout
ATA Chapter: 53 – Fuselage
Programme: AMPEL360 BWB H2 Hy-E Q100 INTEGRA
Generated by: AI (prompted by Amedeo Pelliccia)<?xml version="1.0" encoding="UTF-8"?>
<!--
Document ID: 53-IN-5000
Title: Overhead Bin Support Layout
ATA Chapter: 53 – Fuselage
Programme: AMPEL360 BWB H2 Hy-E Q100 INTEGRA
Generated by: AI (prompted by Amedeo Pelliccia)
Status: Draft – For Design Iteration
Date: 2025-11-25
Revision: A
-->
<svg viewBox="0 0 1200 900" xmlns="http://www.w3.org/2000/svg" style="background-color: #ffffff">
  
  <!-- ==================== LAYER: Frame_Lines ==================== -->
  <g id="Frame_Lines">
    
    <!-- ===== TOP VIEW - FRAME LINES ===== -->
    <!-- Frame reference lines (vertical in top view) -->
    <line x1="120" y1="60" x2="120" y2="280" stroke="#000000" stroke-width="0.6"/>
    <line x1="200" y1="60" x2="200" y2="280" stroke="#000000" stroke-width="0.6"/>
    <line x1="280" y1="60" x2="280" y2="280" stroke="#000000" stroke-width="0.6"/>
    <line x1="360" y1="60" x2="360" y2="280" stroke="#000000" stroke-width="0.6"/>
    <line x1="440" y1="60" x2="440" y2="280" stroke="#000000" stroke-width="0.6"/>
    
    <!-- Frame labels -->
    <text x="120" y="52" text-anchor="middle" font-family="Arial, sans-serif" font-size="8" fill="#000000">FR43</text>
    <text x="200" y="52" text-anchor="middle" font-family="Arial, sans-serif" font-size="8" fill="#000000">FR44</text>
    <text x="280" y="52" text-anchor="middle" font-family="Arial, sans-serif" font-size="8" fill="#000000">FR45</text>
    <text x="360" y="52" text-anchor="middle" font-family="Arial, sans-serif" font-size="8" fill="#000000">FR46</text>
    <text x="440" y="52" text-anchor="middle" font-family="Arial, sans-serif" font-size="8" fill="#000000">FR47</text>
    
    <!-- ===== SIDE VIEW - FRAME LINES ===== -->
    <line x1="120" y1="340" x2="120" y2="520" stroke="#000000" stroke-width="0.6"/>
    <line x1="200" y1="340" x2="200" y2="520" stroke="#000000" stroke-width="0.6"/>
    <line x1="280" y1="340" x2="280" y2="520" stroke="#000000" stroke-width="0.6"/>
    <line x1="360" y1="340" x2="360" y2="520" stroke="#000000" stroke-width="0.6"/>
    <line x1="440" y1="340" x2="440" y2="520" stroke="#000000" stroke-width="0.6"/>
    
    <!-- Side view frame labels -->
    <text x="120" y="535" text-anchor="middle" font-family="Arial, sans-serif" font-size="8" fill="#000000">FR43</text>
    <text x="200" y="535" text-anchor="middle" font-family="Arial, sans-serif" font-size="8" fill="#000000">FR44</text>
    <text x="280" y="535" text-anchor="middle" font-family="Arial, sans-serif" font-size="8" fill="#000000">FR45</text>
    <text x="360" y="535" text-anchor="middle" font-family="Arial, sans-serif" font-size="8" fill="#000000">FR46</text>
    <text x="440" y="535" text-anchor="middle" font-family="Arial, sans-serif" font-size="8" fill="#000000">FR47</text>
    
  </g>
  
  <!-- ==================== LAYER: Stringers ==================== -->
  <g id="Stringers">
    
    <!-- ===== TOP VIEW - LONGITUDINAL STRINGERS (dashed) ===== -->
    <!-- Port side stringers -->
    <line x1="80" y1="100" x2="480" y2="100" stroke="#000000" stroke-width="0.4" stroke-dasharray="8,4"/>
    <line x1="80" y1="130" x2="480" y2="130" stroke="#000000" stroke-width="0.4" stroke-dasharray="8,4"/>
    
    <!-- Centerline -->
    <line x1="80" y1="170" x2="480" y2="170" stroke="#000000" stroke-width="0.5" stroke-dasharray="20,5,5,5"/>
    
    <!-- Starboard side stringers -->
    <line x1="80" y1="210" x2="480" y2="210" stroke="#000000" stroke-width="0.4" stroke-dasharray="8,4"/>
    <line x1="80" y1="240" x2="480" y2="240" stroke="#000000" stroke-width="0.4" stroke-dasharray="8,4"/>
    
    <!-- Stringer labels -->
    <text x="490" y="103" font-family="Arial, sans-serif" font-size="6" fill="#000000">STR-L4</text>
    <text x="490" y="133" font-family="Arial, sans-serif" font-size="6" fill="#000000">STR-L3</text>
    <text x="490" y="173" font-family="Arial, sans-serif" font-size="6" fill="#000000">℄</text>
    <text x="490" y="213" font-family="Arial, sans-serif" font-size="6" fill="#000000">STR-R3</text>
    <text x="490" y="243" font-family="Arial, sans-serif" font-size="6" fill="#000000">STR-R4</text>
    
  </g>
  
  <!-- ==================== LAYER: Support_Beam ==================== -->
  <g id="Support_Beam">
    
    <!-- ===== TOP VIEW - OVERHEAD BIN SUPPORT BEAMS ===== -->
    <!-- Port (Left) Support Beam - ribbed profile -->
    <path d="M 100,95 L 460,95 L 460,105 L 100,105 Z" fill="none" stroke="#000000" stroke-width="0.8"/>
    <!-- Ribs on port beam -->
    <line x1="120" y1="95" x2="120" y2="105" stroke="#000000" stroke-width="0.6"/>
    <line x1="160" y1="95" x2="160" y2="105" stroke="#000000" stroke-width="0.6"/>
    <line x1="200" y1="95" x2="200" y2="105" stroke="#000000" stroke-width="0.6"/>
    <line x1="240" y1="95" x2="240" y2="105" stroke="#000000" stroke-width="0.6"/>
    <line x1="280" y1="95" x2="280" y2="105" stroke="#000000" stroke-width="0.6"/>
    <line x1="320" y1="95" x2="320" y2="105" stroke="#000000" stroke-width="0.6"/>
    <line x1="360" y1="95" x2="360" y2="105" stroke="#000000" stroke-width="0.6"/>
    <line x1="400" y1="95" x2="400" y2="105" stroke="#000000" stroke-width="0.6"/>
    <line x1="440" y1="95" x2="440" y2="105" stroke="#000000" stroke-width="0.6"/>
    
    <!-- Starboard (Right) Support Beam - ribbed profile -->
    <path d="M 100,235 L 460,235 L 460,245 L 100,245 Z" fill="none" stroke="#000000" stroke-width="0.8"/>
    <!-- Ribs on starboard beam -->
    <line x1="120" y1="235" x2="120" y2="245" stroke="#000000" stroke-width="0.6"/>
    <line x1="160" y1="235" x2="160" y2="245" stroke="#000000" stroke-width="0.6"/>
    <line x1="200" y1="235" x2="200" y2="245" stroke="#000000" stroke-width="0.6"/>
    <line x1="240" y1="235" x2="240" y2="245" stroke="#000000" stroke-width="0.6"/>
    <line x1="280" y1="235" x2="280" y2="245" stroke="#000000" stroke-width="0.6"/>
    <line x1="320" y1="235" x2="320" y2="245" stroke="#000000" stroke-width="0.6"/>
    <line x1="360" y1="235" x2="360" y2="245" stroke="#000000" stroke-width="0.6"/>
    <line x1="400" y1="235" x2="400" y2="245" stroke="#000000" stroke-width="0.6"/>
    <line x1="440" y1="235" x2="440" y2="245" stroke="#000000" stroke-width="0.6"/>
    
    <!-- ===== SIDE VIEW - SUPPORT BEAM PROFILE ===== -->
    <!-- Crown curvature (simplified arc) -->
    <path d="M 80,360 Q 280,320 480,360" fill="none" stroke="#000000" stroke-width="0.6"/>
    
    <!-- Fuselage skin reference -->
    <path d="M 80,365 Q 280,325 480,365" fill="none" stroke="#000000" stroke-width="0.4" stroke-dasharray="4,2"/>
    
    <!-- Support beam - side view -->
    <path d="M 100,385 L 460,385 L 460,395 L 100,395 Z" fill="none" stroke="#000000" stroke-width="0.8"/>
    
    <!-- Vertical support struts from beam to crown -->
    <line x1="120" y1="358" x2="120" y2="385" stroke="#000000" stroke-width="0.6"/>
    <line x1="200" y1="352" x2="200" y2="385" stroke="#000000" stroke-width="0.6"/>
    <line x1="280" y1="348" x2="280" y2="385" stroke="#000000" stroke-width="0.6"/>
    <line x1="360" y1="352" x2="360" y2="385" stroke="#000000" stroke-width="0.6"/>
    <line x1="440" y1="358" x2="440" y2="385" stroke="#000000" stroke-width="0.6"/>
    
    <!-- Overhead bin outline (side view - wireframe) -->
    <rect x="130" y="400" width="130" height="60" fill="none" stroke="#000000" stroke-width="0.5"/>
    <rect x="290" y="400" width="130" height="60" fill="none" stroke="#000000" stroke-width="0.5"/>
    
    <!-- Bin hinge indicators -->
    <circle cx="135" cy="400" r="2" fill="none" stroke="#000000" stroke-width="0.4"/>
    <circle cx="255" cy="400" r="2" fill="none" stroke="#000000" stroke-width="0.4"/>
    <circle cx="295" cy="400" r="2" fill="none" stroke="#000000" stroke-width="0.4"/>
    <circle cx="415" cy="400" r="2" fill="none" stroke="#000000" stroke-width="0.4"/>
    
    <!-- Bin labels -->
    <text x="195" y="435" text-anchor="middle" font-family="Arial, sans-serif" font-size="7" fill="#000000">BIN-L1</text>
    <text x="355" y="435" text-anchor="middle" font-family="Arial, sans-serif" font-size="7" fill="#000000">BIN-L2</text>
    
  </g>
  
  <!-- ==================== LAYER: Bracket_Callouts ==================== -->
  <g id="Bracket_Callouts">
    
    <!-- ===== TOP VIEW - BRACKET LOCATIONS ===== -->
    <!-- Port side brackets (BRK-01 to BRK-06) -->
    <!-- BRK-01 -->
    <circle cx="120" cy="100" r="4" fill="none" stroke="#000000" stroke-width="0.6"/>
    <line x1="120" cy="100" x2="120" y2="75" stroke="#000000" stroke-width="0.4"/>
    <line x1="120" y1="75" x2="90" y2="75" stroke="#000000" stroke-width="0.4"/>
    <text x="88" y="78" text-anchor="end" font-family="Arial, sans-serif" font-size="7" fill="#000000">BRK-01</text>
    
    <!-- BRK-02 -->
    <circle cx="200" cy="100" r="4" fill="none" stroke="#000000" stroke-width="0.6"/>
    <line x1="200" y1="100" x2="200" y2="80" stroke="#000000" stroke-width="0.4"/>
    <text x="200" y="77" text-anchor="middle" font-family="Arial, sans-serif" font-size="7" fill="#000000">BRK-02</text>
    
    <!-- BRK-03 -->
    <circle cx="280" cy="100" r="4" fill="none" stroke="#000000" stroke-width="0.6"/>
    <line x1="280" y1="100" x2="280" y2="80" stroke="#000000" stroke-width="0.4"/>
    <text x="280" y="77" text-anchor="middle" font-family="Arial, sans-serif" font-size="7" fill="#000000">BRK-03</text>
    
    <!-- BRK-04 -->
    <circle cx="360" cy="100" r="4" fill="none" stroke="#000000" stroke-width="0.6"/>
    <line x1="360" y1="100" x2="360" y2="80" stroke="#000000" stroke-width="0.4"/>
    <text x="360" y="77" text-anchor="middle" font-family="Arial, sans-serif" font-size="7" fill="#000000">BRK-04</text>
    
    <!-- BRK-05 -->
    <circle cx="440" cy="100" r="4" fill="none" stroke="#000000" stroke-width="0.6"/>
    <line x1="440" y1="100" x2="440" y2="80" stroke="#000000" stroke-width="0.4"/>
    <text x="440" y="77" text-anchor="middle" font-family="Arial, sans-serif" font-size="7" fill="#000000">BRK-05</text>
    
    <!-- BRK-06 (mid-span) -->
    <circle cx="240" cy="100" r="4" fill="none" stroke="#000000" stroke-width="0.6"/>
    <line x1="240" y1="96" x2="250" y2="85" stroke="#000000" stroke-width="0.4"/>
    <text x="252" y="83" font-family="Arial, sans-serif" font-size="7" fill="#000000">BRK-06</text>
    
    <!-- Starboard side brackets (BRK-07 to BRK-12) -->
    <!-- BRK-07 -->
    <circle cx="120" cy="240" r="4" fill="none" stroke="#000000" stroke-width="0.6"/>
    <line x1="120" y1="240" x2="120" y2="265" stroke="#000000" stroke-width="0.4"/>
    <line x1="120" y1="265" x2="90" y2="265" stroke="#000000" stroke-width="0.4"/>
    <text x="88" y="268" text-anchor="end" font-family="Arial, sans-serif" font-size="7" fill="#000000">BRK-07</text>
    
    <!-- BRK-08 -->
    <circle cx="200" cy="240" r="4" fill="none" stroke="#000000" stroke-width="0.6"/>
    <line x1="200" y1="240" x2="200" y2="260" stroke="#000000" stroke-width="0.4"/>
    <text x="200" y="270" text-anchor="middle" font-family="Arial, sans-serif" font-size="7" fill="#000000">BRK-08</text>
    
    <!-- BRK-09 -->
    <circle cx="280" cy="240" r="4" fill="none" stroke="#000000" stroke-width="0.6"/>
    <line x1="280" y1="240" x2="280" y2="260" stroke="#000000" stroke-width="0.4"/>
    <text x="280" y="270" text-anchor="middle" font-family="Arial, sans-serif" font-size="7" fill="#000000">BRK-09</text>
    
    <!-- BRK-10 -->
    <circle cx="360" cy="240" r="4" fill="none" stroke="#000000" stroke-width="0.6"/>
    <line x1="360" y1="240" x2="360" y2="260" stroke="#000000" stroke-width="0.4"/>
    <text x="360" y="270" text-anchor="middle" font-family="Arial, sans-serif" font-size="7" fill="#000000">BRK-10</text>
    
    <!-- BRK-11 -->
    <circle cx="440" cy="240" r="4" fill="none" stroke="#000000" stroke-width="0.6"/>
    <line x1="440" y1="240" x2="440" y2="260" stroke="#000000" stroke-width="0.4"/>
    <text x="440" y="270" text-anchor="middle" font-family="Arial, sans-serif" font-size="7" fill="#000000">BRK-11</text>
    
    <!-- BRK-12 (mid-span) -->
    <circle cx="320" cy="240" r="4" fill="none" stroke="#000000" stroke-width="0.6"/>
    <line x1="320" y1="244" x2="330" y2="255" stroke="#000000" stroke-width="0.4"/>
    <text x="332" y="260" font-family="Arial, sans-serif" font-size="7" fill="#000000">BRK-12</text>
    
    <!-- ===== SIDE VIEW - FASTENER SYMBOLS ===== -->
    <!-- Fastener at FR43 -->
    <circle cx="120" cy="390" r="2.5" fill="none" stroke="#000000" stroke-width="0.5"/>
    <line x1="118" y1="388" x2="122" y2="392" stroke="#000000" stroke-width="0.4"/>
    <line x1="122" y1="388" x2="118" y2="392" stroke="#000000" stroke-width="0.4"/>
    
    <!-- Fastener at FR44 -->
    <circle cx="200" cy="390" r="2.5" fill="none" stroke="#000000" stroke-width="0.5"/>
    <line x1="198" y1="388" x2="202" y2="392" stroke="#000000" stroke-width="0.4"/>
    <line x1="202" y1="388" x2="198" y2="392" stroke="#000000" stroke-width="0.4"/>
    
    <!-- Fastener at FR45 -->
    <circle cx="280" cy="390" r="2.5" fill="none" stroke="#000000" stroke-width="0.5"/>
    <line x1="278" y1="388" x2="282" y2="392" stroke="#000000" stroke-width="0.4"/>
    <line x1="282" y1="388" x2="278" y2="392" stroke="#000000" stroke-width="0.4"/>
    
    <!-- Fastener at FR46 -->
    <circle cx="360" cy="390" r="2.5" fill="none" stroke="#000000" stroke-width="0.5"/>
    <line x1="358" y1="388" x2="362" y2="392" stroke="#000000" stroke-width="0.4"/>
    <line x1="362" y1="388" x2="358" y2="392" stroke="#000000" stroke-width="0.4"/>
    
    <!-- Fastener at FR47 -->
    <circle cx="440" cy="390" r="2.5" fill="none" stroke="#000000" stroke-width="0.5"/>
    <line x1="438" y1="388" x2="442" y2="392" stroke="#000000" stroke-width="0.4"/>
    <line x1="442" y1="388" x2="438" y2="392" stroke="#000000" stroke-width="0.4"/>
    
  </g>
  
  <!-- ==================== LAYER: Isometric_View ==================== -->
  <g id="Isometric_View">
    
    <!-- Isometric view area -->
    <!-- Frame outline (isometric projection) -->
    
    <!-- Left frame (FR43 equivalent) -->
    <path d="M 600,580 L 600,700 L 680,750 L 680,630 Z" fill="none" stroke="#000000" stroke-width="0.6"/>
    
    <!-- Right frame (FR45 equivalent) -->
    <path d="M 750,560 L 750,680 L 830,730 L 830,610 Z" fill="none" stroke="#000000" stroke-width="0.6"/>
    
    <!-- Additional frame (FR47) -->
    <path d="M 900,540 L 900,660 L 980,710 L 980,590 Z" fill="none" stroke="#000000" stroke-width="0.6"/>
    
    <!-- Crown curvature (isometric) -->
    <path d="M 580,600 Q 680,560 780,580 Q 880,540 1000,560" fill="none" stroke="#000000" stroke-width="0.6"/>
    
    <!-- Support beam - port side (isometric) -->
    <path d="M 590,615 L 990,575" fill="none" stroke="#000000" stroke-width="0.8"/>
    <path d="M 590,622 L 990,582" fill="none" stroke="#000000" stroke-width="0.8"/>
    <!-- Beam depth lines -->
    <line x1="590" y1="615" x2="590" y2="622" stroke="#000000" stroke-width="0.6"/>
    <line x1="990" y1="575" x2="990" y2="582" stroke="#000000" stroke-width="0.6"/>
    
    <!-- Support beam - starboard side (isometric) -->
    <path d="M 660,720 L 1060,680" fill="none" stroke="#000000" stroke-width="0.8"/>
    <path d="M 660,727 L 1060,687" fill="none" stroke="#000000" stroke-width="0.8"/>
    <!-- Beam depth lines -->
    <line x1="660" y1="720" x2="660" y2="727" stroke="#000000" stroke-width="0.6"/>
    <line x1="1060" y1="680" x2="1060" y2="687" stroke="#000000" stroke-width="0.6"/>
    
    <!-- Vertical struts (isometric) -->
    <line x1="600" y1="600" x2="600" y2="618" stroke="#000000" stroke-width="0.5"/>
    <line x1="750" y1="580" x2="750" y2="598" stroke="#000000" stroke-width="0.5"/>
    <line x1="900" y1="560" x2="900" y2="578" stroke="#000000" stroke-width="0.5"/>
    
    <!-- Brackets at frame intersections (isometric) -->
    <polygon points="595,615 605,615 605,622 595,622" fill="none" stroke="#000000" stroke-width="0.5"/>
    <polygon points="745,595 755,595 755,602 745,602" fill="none" stroke="#000000" stroke-width="0.5"/>
    <polygon points="895,575 905,575 905,582 895,582" fill="none" stroke="#000000" stroke-width="0.5"/>
    
    <!-- Overhead bin - wireframe (isometric) -->
    <!-- Bin 1 -->
    <path d="M 640,640 L 640,680 L 720,720 L 720,680 L 800,640 L 800,600 L 720,640 L 640,640" 
          fill="none" stroke="#000000" stroke-width="0.5"/>
    <line x1="640" y1="680" x2="720" y2="640" stroke="#000000" stroke-width="0.4" stroke-dasharray="4,2"/>
    <line x1="720" y1="680" x2="800" y2="640" stroke="#000000" stroke-width="0.4" stroke-dasharray="4,2"/>
    
    <!-- Bin 2 -->
    <path d="M 820,620 L 820,660 L 900,700 L 900,660 L 980,620 L 980,580 L 900,620 L 820,620" 
          fill="none" stroke="#000000" stroke-width="0.5"/>
    <line x1="820" y1="660" x2="900" y2="620" stroke="#000000" stroke-width="0.4" stroke-dasharray="4,2"/>
    <line x1="900" y1="660" x2="980" y2="620" stroke="#000000" stroke-width="0.4" stroke-dasharray="4,2"/>
    
    <!-- Frame labels (isometric) -->
    <text x="580" y="715" font-family="Arial, sans-serif" font-size="7" fill="#000000">FR43</text>
    <text x="730" y="695" font-family="Arial, sans-serif" font-size="7" fill="#000000">FR45</text>
    <text x="880" y="675" font-family="Arial, sans-serif" font-size="7" fill="#000000">FR47</text>
    
    <!-- Isometric view label -->
    <text x="800" y="770" text-anchor="middle" font-family="Arial, sans-serif" font-size="9" fill="#000000">ISOMETRIC CUTAWAY VIEW</text>
    
  </g>
  
  <!-- ==================== LAYER: Dimensions_And_Annotations ==================== -->
  <g id="Dimensions_And_Annotations">
    
    <!-- ===== VIEW TITLES ===== -->
    <text x="280" y="295" text-anchor="middle" font-family="Arial, sans-serif" font-size="10" fill="#000000">TOP VIEW (PLAN)</text>
    <text x="280" y="555" text-anchor="middle" font-family="Arial, sans-serif" font-size="10" fill="#000000">SIDE VIEW (LEFT)</text>
    
    <!-- ===== DATUM REFERENCES ===== -->
    <!-- Station reference box -->
    <rect x="520" y="60" width="160" height="90" fill="none" stroke="#000000" stroke-width="0.5"/>
    <text x="530" y="78" font-family="Arial, sans-serif" font-size="8" font-weight="bold" fill="#000000">DATUM REFERENCES</text>
    <line x1="520" y1="82" x2="680" y2="82" stroke="#000000" stroke-width="0.4"/>
    <text x="530" y="96" font-family="Arial, sans-serif" font-size="7" fill="#000000">X-STA: 1780 – 1880 mm</text>
    <text x="530" y="110" font-family="Arial, sans-serif" font-size="7" fill="#000000">Y-WL:  2100 – 2350 mm</text>
    <text x="530" y="124" font-family="Arial, sans-serif" font-size="7" fill="#000000">Z-BL:  ±750 mm</text>
    <text x="530" y="142" font-family="Arial, sans-serif" font-size="7" fill="#000000">FRAME PITCH: 533 mm (21")</text>
    
    <!-- ===== SECTION ARROWS ===== -->
    <!-- Section A-A (top view) -->
    <line x1="280" y1="290" x2="280" y2="300" stroke="#000000" stroke-width="0.6"/>
    <polygon points="280,300 276,294 284,294" fill="#000000"/>
    <text x="268" y="310" font-family="Arial, sans-serif" font-size="8" fill="#000000">A</text>
    
    <line x1="280" y1="55" x2="280" y2="45" stroke="#000000" stroke-width="0.6"/>
    <polygon points="280,45 276,51 284,51" fill="#000000"/>
    <text x="268" y="42" font-family="Arial, sans-serif" font-size="8" fill="#000000">A</text>
    
    <!-- Section B-B (side view) -->
    <line x1="70" y1="430" x2="60" y2="430" stroke="#000000" stroke-width="0.6"/>
    <polygon points="60,430 66,426 66,434" fill="#000000"/>
    <text x="52" y="433" text-anchor="end" font-family="Arial, sans-serif" font-size="8" fill="#000000">B</text>
    
    <line x1="490" y1="430" x2="500" y2="430" stroke="#000000" stroke-width="0.6"/>
    <polygon points="500,430 494,426 494,434" fill="#000000"/>
    <text x="508" y="433" font-family="Arial, sans-serif" font-size="8" fill="#000000">B</text>
    
    <!-- Section labels -->
    <text x="255" y="320" font-family="Arial, sans-serif" font-size="7" fill="#000000">SECTION A-A</text>
    <text x="40" y="445" font-family="Arial, sans-serif" font-size="7" fill="#000000">SECTION B-B</text>
    
    <!-- ===== MATERIAL REFERENCES ===== -->
    <rect x="520" y="165" width="180" height="110" fill="none" stroke="#000000" stroke-width="0.5"/>
    <text x="530" y="183" font-family="Arial, sans-serif" font-size="8" font-weight="bold" fill="#000000">MATERIAL REFERENCES</text>
    <line x1="520" y1="187" x2="700" y2="187" stroke="#000000" stroke-width="0.4"/>
    <text x="530" y="202" font-family="Arial, sans-serif" font-size="7" fill="#000000">1. Support Beam:</text>
    <text x="540" y="214" font-family="Arial, sans-serif" font-size="6" fill="#000000">Al-Li 2050-T84 (TBD)</text>
    <text x="530" y="230" font-family="Arial, sans-serif" font-size="7" fill="#000000">2. Bracket Assembly:</text>
    <text x="540" y="242" font-family="Arial, sans-serif" font-size="6" fill="#000000">7075-T6 Aluminum (TBD)</text>
    <text x="530" y="258" font-family="Arial, sans-serif" font-size="7" fill="#000000">3. Frame Interface Panel:</text>
    <text x="540" y="270" font-family="Arial, sans-serif" font-size="6" fill="#000000">Composite CFRP (TBD)</text>
    
    <!-- ===== FASTENER LEGEND ===== -->
    <rect x="520" y="290" width="180" height="80" fill="none" stroke="#000000" stroke-width="0.5"/>
    <text x="530" y="308" font-family="Arial, sans-serif" font-size="8" font-weight="bold" fill="#000000">FASTENER LEGEND</text>
    <line x1="520" y1="312" x2="700" y2="312" stroke="#000000" stroke-width="0.4"/>
    
    <!-- Bolt symbol -->
    <circle cx="540" cy="330" r="4" fill="none" stroke="#000000" stroke-width="0.5"/>
    <line x1="537" y1="327" x2="543" y2="333" stroke="#000000" stroke-width="0.4"/>
    <line x1="543" y1="327" x2="537" y2="333" stroke="#000000" stroke-width="0.4"/>
    <text x="550" y="333" font-family="Arial, sans-serif" font-size="7" fill="#000000">Hi-Lok Bolt</text>
    
    <!-- Rivet symbol -->
    <circle cx="540" cy="350" r="3" fill="#000000"/>
    <text x="550" y="353" font-family="Arial, sans-serif" font-size="7" fill="#000000">Solid Rivet</text>
    
    <!-- ===== DIMENSION LINES (TOP VIEW) ===== -->
    <!-- Frame spacing dimension -->
    <line x1="120" y1="285" x2="200" y2="285" stroke="#000000" stroke-width="0.4"/>
    <line x1="120" y1="280" x2="120" y2="290" stroke="#000000" stroke-width="0.4"/>
    <line x1="200" y1="280" x2="200" y2="290" stroke="#000000" stroke-width="0.4"/>
    <text x="160" y="283" text-anchor="middle" font-family="Arial, sans-serif" font-size="6" fill="#000000">533</text>
    
    <!-- Beam width dimension -->
    <line x1="465" y1="95" x2="480" y2="95" stroke="#000000" stroke-width="0.4"/>
    <line x1="465" y1="105" x2="480" y2="105" stroke="#000000" stroke-width="0.4"/>
    <line x1="475" y1="95" x2="475" y2="105" stroke="#000000" stroke-width="0.4"/>
    <text x="485" y="102" font-family="Arial, sans-serif" font-size="6" fill="#000000">80</text>
    
    <!-- ===== COORDINATE AXES ===== -->
    <!-- Top view axes -->
    <line x1="40" y1="170" x2="70" y2="170" stroke="#000000" stroke-width="0.6"/>
    <polygon points="70,170 65,167 65,173" fill="#000000"/>
    <text x="75" y="173" font-family="Arial, sans-serif" font-size="7" fill="#000000">X</text>
    
    <line x1="40" y1="170" x2="40" y2="140" stroke="#000000" stroke-width="0.6"/>
    <polygon points="40,140 37,145 43,145" fill="#000000"/>
    <text x="37" y="135" font-family="Arial, sans-serif" font-size="7" fill="#000000">Y</text>
    
    <!-- Side view axes -->
    <line x1="40" y1="490" x2="70" y2="490" stroke="#000000" stroke-width="0.6"/>
    <polygon points="70,490 65,487 65,493" fill="#000000"/>
    <text x="75" y="493" font-family="Arial, sans-serif" font-size="7" fill="#000000">X</text>
    
    <line x1="40" y1="490" x2="40" y2="460" stroke="#000000" stroke-width="0.6"/>
    <polygon points="40,460 37,465 43,465" fill="#000000"/>
    <text x="37" y="455" font-family="Arial, sans-serif" font-size="7" fill="#000000">Z</text>
    
    <!-- ===== NOTES BOX ===== -->
    <rect x="520" y="385" width="200" height="120" fill="none" stroke="#000000" stroke-width="0.5"/>
    <text x="530" y="403" font-family="Arial, sans-serif" font-size="8" font-weight="bold" fill="#000000">NOTES</text>
    <line x1="520" y1="407" x2="720" y2="407" stroke="#000000" stroke-width="0.4"/>
    <text x="530" y="422" font-family="Arial, sans-serif" font-size="6" fill="#000000">1. ALL DIMENSIONS IN MILLIMETERS</text>
    <text x="530" y="434" font-family="Arial, sans-serif" font-size="6" fill="#000000">2. TOLERANCES PER ISO 2768-mK</text>
    <text x="530" y="446" font-family="Arial, sans-serif" font-size="6" fill="#000000">3. SURFACE FINISH: Ra 3.2 μm MAX</text>
    <text x="530" y="458" font-family="Arial, sans-serif" font-size="6" fill="#000000">4. BRACKETS SYMMETRICAL ABOUT ℄</text>
    <text x="530" y="470" font-family="Arial, sans-serif" font-size="6" fill="#000000">5. FASTENER TORQUE PER SRM 51-70-00</text>
    <text x="530" y="482" font-family="Arial, sans-serif" font-size="6" fill="#000000">6. SEE 53-IN-5001 FOR BRACKET DETAIL</text>
    <text x="530" y="494" font-family="Arial, sans-serif" font-size="6" fill="#000000">7. INSTALL PER AMM 25-20-00</text>
    
    <!-- ===== BRACKET SCHEDULE ===== -->
    <rect x="740" y="60" width="200" height="180" fill="none" stroke="#000000" stroke-width="0.5"/>
    <text x="840" y="78" text-anchor="middle" font-family="Arial, sans-serif" font-size="8" font-weight="bold" fill="#000000">BRACKET SCHEDULE</text>
    <line x1="740" y1="82" x2="940" y2="82" stroke="#000000" stroke-width="0.4"/>
    
    <!-- Table header -->
    <text x="765" y="96" text-anchor="middle" font-family="Arial, sans-serif" font-size="6" font-weight="bold" fill="#000000">ID</text>
    <text x="810" y="96" text-anchor="middle" font-family="Arial, sans-serif" font-size="6" font-weight="bold" fill="#000000">FRAME</text>
    <text x="860" y="96" text-anchor="middle" font-family="Arial, sans-serif" font-size="6" font-weight="bold" fill="#000000">SIDE</text>
    <text x="910" y="96" text-anchor="middle" font-family="Arial, sans-serif" font-size="6" font-weight="bold" fill="#000000">QTY</text>
    <line x1="740" y1="100" x2="940" y2="100" stroke="#000000" stroke-width="0.3"/>
    
    <!-- Table data -->
    <text x="765" y="112" text-anchor="middle" font-family="Arial, sans-serif" font-size="6" fill="#000000">BRK-01</text>
    <text x="810" y="112" text-anchor="middle" font-family="Arial, sans-serif" font-size="6" fill="#000000">FR43</text>
    <text x="860" y="112" text-anchor="middle" font-family="Arial, sans-serif" font-size="6" fill="#000000">PORT</text>
    <text x="910" y="112" text-anchor="middle" font-family="Arial, sans-serif" font-size="6" fill="#000000">1</text>
    
    <text x="765" y="124" text-anchor="middle" font-family="Arial, sans-serif" font-size="6" fill="#000000">BRK-02</text>
    <text x="810" y="124" text-anchor="middle" font-family="Arial, sans-serif" font-size="6" fill="#000000">FR44</text>
    <text x="860" y="124" text-anchor="middle" font-family="Arial, sans-serif" font-size="6" fill="#000000">PORT</text>
    <text x="910" y="124" text-anchor="middle" font-family="Arial, sans-serif" font-size="6" fill="#000000">1</text>
    
    <text x="765" y="136" text-anchor="middle" font-family="Arial, sans-serif" font-size="6" fill="#000000">BRK-03</text>
    <text x="810" y="136" text-anchor="middle" font-family="Arial, sans-serif" font-size="6" fill="#000000">FR45</text>
    <text x="860" y="136" text-anchor="middle" font-family="Arial, sans-serif" font-size="6" fill="#000000">PORT</text>
    <text x="910" y="136" text-anchor="middle" font-family="Arial, sans-serif" font-size="6" fill="#000000">1</text>
    
    <text x="765" y="148" text-anchor="middle" font-family="Arial, sans-serif" font-size="6" fill="#000000">BRK-04</text>
    <text x="810" y="148" text-anchor="middle" font-family="Arial, sans-serif" font-size="6" fill="#000000">FR46</text>
    <text x="860" y="148" text-anchor="middle" font-family="Arial, sans-serif" font-size="6" fill="#000000">PORT</text>
    <text x="910" y="148" text-anchor="middle" font-family="Arial, sans-serif" font-size="6" fill="#000000">1</text>
    
    <text x="765" y="160" text-anchor="middle" font-family="Arial, sans-serif" font-size="6" fill="#000000">BRK-05</text>
    <text x="810" y="160" text-anchor="middle" font-family="Arial, sans-serif" font-size="6" fill="#000000">FR47</text>
    <text x="860" y="160" text-anchor="middle" font-family="Arial, sans-serif" font-size="6" fill="#000000">PORT</text>
    <text x="910" y="160" text-anchor="middle" font-family="Arial, sans-serif" font-size="6" fill="#000000">1</text>
    
    <text x="765" y="172" text-anchor="middle" font-family="Arial, sans-serif" font-size="6" fill="#000000">BRK-06</text>
    <text x="810" y="172" text-anchor="middle" font-family="Arial, sans-serif" font-size="6" fill="#000000">MID</text>
    <text x="860" y="172" text-anchor="middle" font-family="Arial, sans-serif" font-size="6" fill="#000000">PORT</text>
    <text x="910" y="172" text-anchor="middle" font-family="Arial, sans-serif" font-size="6" fill="#000000">1</text>
    
    <line x1="740" y1="178" x2="940" y2="178" stroke="#000000" stroke-width="0.3"/>
    
    <text x="765" y="190" text-anchor="middle" font-family="Arial, sans-serif" font-size="6" fill="#000000">BRK-07</text>
    <text x="810" y="190" text-anchor="middle" font-family="Arial, sans-serif" font-size="6" fill="#000000">FR43</text>
    <text x="860" y="190" text-anchor="middle" font-family="Arial, sans-serif" font-size="6" fill="#000000">STBD</text>
    <text x="910" y="190" text-anchor="middle" font-family="Arial, sans-serif" font-size="6" fill="#000000">1</text>
    
    <text x="765" y="202" text-anchor="middle" font-family="Arial, sans-serif" font-size="6" fill="#000000">BRK-08</text>
    <text x="810" y="202" text-anchor="middle" font-family="Arial, sans-serif" font-size="6" fill="#000000">FR44</text>
    <text x="860" y="202" text-anchor="middle" font-family="Arial, sans-serif" font-size="6" fill="#000000">STBD</text>
    <text x="910" y="202" text-anchor="middle" font-family="Arial, sans-serif" font-size="6" fill="#000000">1</text>
    
    <text x="765" y="214" text-anchor="middle" font-family="Arial, sans-serif" font-size="6" fill="#000000">...</text>
    <text x="810" y="214" text-anchor="middle" font-family="Arial, sans-serif" font-size="6" fill="#000000">...</text>
    <text x="860" y="214" text-anchor="middle" font-family="Arial, sans-serif" font-size="6" fill="#000000">...</text>
    <text x="910" y="214" text-anchor="middle" font-family="Arial, sans-serif" font-size="6" fill="#000000">...</text>
    
    <line x1="740" y1="220" x2="940" y2="220" stroke="#000000" stroke-width="0.3"/>
    <text x="800" y="234" text-anchor="middle" font-family="Arial, sans-serif" font-size="6" font-weight="bold" fill="#000000">TOTAL: 12 BRACKETS</text>
    
  </g>
  
  <!-- ==================== TITLE BLOCK ==================== -->
  <g id="Title_Block">
    
    <rect x="740" y="800" width="440" height="85" fill="none" stroke="#000000" stroke-width="0.8"/>
    
    <!-- Vertical dividers -->
    <line x1="920" y1="800" x2="920" y2="885" stroke="#000000" stroke-width="0.5"/>
    <line x1="1050" y1="830" x2="1050" y2="885" stroke="#000000" stroke-width="0.5"/>
    <line x1="1120" y1="855" x2="1120" y2="885" stroke="#000000" stroke-width="0.5"/>
    
    <!-- Horizontal dividers -->
    <line x1="740" y1="830" x2="1180" y2="830" stroke="#000000" stroke-width="0.5"/>
    <line x1="740" y1="855" x2="1180" y2="855" stroke="#000000" stroke-width="0.5"/>
    
    <!-- Company/Program -->
    <text x="830" y="818" text-anchor="middle" font-family="Arial, sans-serif" font-size="10" font-weight="bold" fill="#000000">GAIA AIR</text>
    <text x="830" y="828" text-anchor="middle" font-family="Arial, sans-serif" font-size="6" fill="#000000">AMPEL360 BWB H2 Hy-E Q100 INTEGRA</text>
    
    <!-- Title -->
    <text x="830" y="848" text-anchor="middle" font-family="Arial, sans-serif" font-size="9" font-weight="bold" fill="#000000">OVERHEAD BIN SUPPORT LAYOUT</text>
    
    <!-- Drawing number -->
    <text x="755" y="870" font-family="Arial, sans-serif" font-size="7" fill="#000000">DWG NO:</text>
    <text x="830" y="880" text-anchor="middle" font-family="Arial, sans-serif" font-size="12" font-weight="bold" fill="#000000">53-IN-5000</text>
    
    <!-- Scale -->
    <text x="990" y="845" text-anchor="middle" font-family="Arial, sans-serif" font-size="7" fill="#000000">SCALE</text>
    <text x="990" y="855" text-anchor="middle" font-family="Arial, sans-serif" font-size="6" fill="#000000">NTS</text>
    
    <!-- Size -->
    <text x="990" y="870" text-anchor="middle" font-family="Arial, sans-serif" font-size="7" fill="#000000">SIZE</text>
    <text x="990" y="882" text-anchor="middle" font-family="Arial, sans-serif" font-size="9" font-weight="bold" fill="#000000">A2</text>
    
    <!-- Rev -->
    <text x="1085" y="870" text-anchor="middle" font-family="Arial, sans-serif" font-size="7" fill="#000000">REV</text>
    <text x="1085" y="882" text-anchor="middle" font-family="Arial, sans-serif" font-size="9" font-weight="bold" fill="#000000">A</text>
    
    <!-- Sheet -->
    <text x="1150" y="870" text-anchor="middle" font-family="Arial, sans-serif" font-size="7" fill="#000000">SHEET</text>
    <text x="1150" y="882" text-anchor="middle" font-family="Arial, sans-serif" font-size="9" fill="#000000">1 OF 1</text>
    
    <!-- Date -->
    <text x="1050" y="818" text-anchor="middle" font-family="Arial, sans-serif" font-size="7" fill="#000000">DATE</text>
    <text x="1050" y="828" text-anchor="middle" font-family="Arial, sans-serif" font-size="8" fill="#000000">2025-11-25</text>
    
    <!-- ATA Reference -->
    <text x="1050" y="845" text-anchor="middle" font-family="Arial, sans-serif" font-size="7" fill="#000000">ATA CHAPTER</text>
    <text x="1050" y="855" text-anchor="middle" font-family="Arial, sans-serif" font-size="9" font-weight="bold" fill="#000000">53</text>
    
  </g>
  
  <!-- ==================== BORDER ==================== -->
  <rect x="10" y="10" width="1180" height="880" fill="none" stroke="#000000" stroke-width="1"/>
  <rect x="15" y="15" width="1170" height="870" fill="none" stroke="#000000" stroke-width="0.5"/>
  
</svg>
