<svg viewBox="0 0 1200 900" xmlns="http://www.w3.org/2000/svg" style="background-color: #0a1628">
  <defs>
    <!-- Grid Pattern -->
    <pattern id="grid" width="20" height="20" patternUnits="userSpaceOnUse">
      <path d="M 20 0 L 0 0 0 20" fill="none" stroke="#1a3a5c" stroke-width="0.3"/>
    </pattern>
    
    <!-- Fine Grid -->
    <pattern id="fineGrid" width="100" height="100" patternUnits="userSpaceOnUse">
      <rect width="100" height="100" fill="url(#grid)"/>
      <path d="M 100 0 L 0 0 0 100" fill="none" stroke="#1e4a6e" stroke-width="0.5"/>
    </pattern>
    
    <!-- Electrical Harness Pattern -->
    <pattern id="electricalPattern" patternUnits="userSpaceOnUse" width="8" height="8">
      <circle cx="4" cy="4" r="1.5" fill="#ffd60a"/>
    </pattern>
    
    <!-- Insulation Hatch Pattern -->
    <pattern id="insulationHatch" patternUnits="userSpaceOnUse" width="6" height="6" patternTransform="rotate(45)">
      <line x1="0" y1="0" x2="0" y2="6" stroke="#f72585" stroke-width="0.5" opacity="0.5"/>
    </pattern>
    
    <!-- Arrow Marker -->
    <marker id="arrowhead" markerWidth="10" markerHeight="7" refX="9" refY="3.5" orient="auto">
      <polygon points="0 0, 10 3.5, 0 7" fill="#88c0d0"/>
    </marker>
  </defs>
  
  <!-- Background Grid -->
  <rect width="1200" height="900" fill="url(#fineGrid)"/>
  
  <!-- Title Block -->
  <rect x="850" y="780" width="330" height="100" fill="#0d1f38" stroke="#4cc9f0" stroke-width="1"/>
  <line x1="850" y1="810" x2="1180" y2="810" stroke="#4cc9f0" stroke-width="0.5"/>
  <line x1="850" y1="840" x2="1180" y2="840" stroke="#4cc9f0" stroke-width="0.5"/>
  <line x1="850" y1="860" x2="1180" y2="860" stroke="#4cc9f0" stroke-width="0.5"/>
  <line x1="1000" y1="810" x2="1000" y2="880" stroke="#4cc9f0" stroke-width="0.5"/>
  <line x1="1100" y1="840" x2="1100" y2="880" stroke="#4cc9f0" stroke-width="0.5"/>
  
  <text x="860" y="802" fill="#4cc9f0" font-family="monospace" font-size="9">GAIA AIR - AMPEL360 BWB AIRCRAFT</text>
  <text x="860" y="828" fill="white" font-family="monospace" font-size="8">DWG NO:</text>
  <text x="1010" y="828" fill="#ffd60a" font-family="monospace" font-size="10" font-weight="bold">53-IN-1000</text>
  <text x="860" y="855" fill="white" font-family="monospace" font-size="8">TITLE: ATA 53 - ZONE 100 UPPER SHELL SYSTEMS ROUTING</text>
  <text x="860" y="875" fill="white" font-family="monospace" font-size="8">REV:</text>
  <text x="890" y="875" fill="#06d6a0" font-family="monospace" font-size="9">A</text>
  <text x="1010" y="875" fill="white" font-family="monospace" font-size="8">DATE:</text>
  <text x="1050" y="875" fill="white" font-family="monospace" font-size="9">2025-11-25</text>
  <text x="1110" y="875" fill="white" font-family="monospace" font-size="8">SCALE:</text>
  <text x="1150" y="875" fill="white" font-family="monospace" font-size="9">NTS</text>
  <text x="930" y="802" fill="#88c0d0" font-family="monospace" font-size="8">TOP VIEW - LOOKING DOWN</text>
  
  <!-- Main Drawing Area Border -->
  <rect x="20" y="60" width="1160" height="700" fill="none" stroke="#4cc9f0" stroke-width="1"/>
  
  <!-- Drawing Title -->
  <text x="600" y="40" text-anchor="middle" fill="#4cc9f0" font-family="Arial, sans-serif" font-size="20" font-weight="bold">
    ATA 53 – FUSELAGE ZONE 100 UPPER SHELL SYSTEMS ROUTING
  </text>
  <text x="600" y="55" text-anchor="middle" fill="#88c0d0" font-family="Arial, sans-serif" font-size="11">
    BWB Forward Fuselage • Plan View • Hyperbolic Wing Geometry
  </text>
  
  <!-- BWB Outline - Hyperbolic Wing Curvature -->
  <path d="M 120,400 
           Q 80,400 100,340 
           C 140,280 200,220 320,180
           C 450,135 650,110 900,95
           C 1000,90 1080,100 1100,120
           L 1120,400
           L 1100,680
           C 1080,700 1000,710 900,705
           C 650,690 450,665 320,620
           C 200,580 140,520 100,460
           Q 80,400 120,400"
        fill="none" stroke="#4cc9f0" stroke-width="2.5"/>
  
  <!-- Wing Curvature Contour Lines -->
  <path d="M 200,380 C 300,340 500,300 800,280" fill="none" stroke="#2a5a7a" stroke-width="0.8" stroke-dasharray="10,5"/>
  <path d="M 200,420 C 300,460 500,500 800,520" fill="none" stroke="#2a5a7a" stroke-width="0.8" stroke-dasharray="10,5"/>
  <path d="M 280,360 C 400,320 600,285 900,265" fill="none" stroke="#2a5a7a" stroke-width="0.5" stroke-dasharray="5,5"/>
  <path d="M 280,440 C 400,480 600,515 900,535" fill="none" stroke="#2a5a7a" stroke-width="0.5" stroke-dasharray="5,5"/>
  
  <!-- Curvature Labels -->
  <text x="820" y="272" fill="#2a5a7a" font-family="monospace" font-size="7" transform="rotate(-8,820,272)">UPPER CONTOUR +200mm</text>
  <text x="820" y="540" fill="#2a5a7a" font-family="monospace" font-size="7" transform="rotate(8,820,540)">UPPER CONTOUR -200mm</text>
  
  <!-- Frame Station Lines -->
  <line x1="180" y1="300" x2="180" y2="500" stroke="#ffd60a" stroke-width="1.5" stroke-dasharray="8,4"/>
  <text x="180" y="290" text-anchor="middle" fill="#ffd60a" font-family="monospace" font-size="10" font-weight="bold">FS 0</text>
  
  <line x1="280" y1="250" x2="280" y2="550" stroke="#ffd60a" stroke-width="1.5" stroke-dasharray="8,4"/>
  <text x="280" y="240" text-anchor="middle" fill="#ffd60a" font-family="monospace" font-size="10" font-weight="bold">FS 100</text>
  
  <line x1="400" y1="210" x2="400" y2="590" stroke="#ffd60a" stroke-width="1.5" stroke-dasharray="8,4"/>
  <text x="400" y="200" text-anchor="middle" fill="#ffd60a" font-family="monospace" font-size="10" font-weight="bold">FS 200</text>
  
  <line x1="550" y1="175" x2="550" y2="625" stroke="#ffd60a" stroke-width="1.5" stroke-dasharray="8,4"/>
  <text x="550" y="165" text-anchor="middle" fill="#ffd60a" font-family="monospace" font-size="10" font-weight="bold">FS 350</text>
  
  <line x1="720" y1="150" x2="720" y2="650" stroke="#ffd60a" stroke-width="1.5" stroke-dasharray="8,4"/>
  <text x="720" y="140" text-anchor="middle" fill="#ffd60a" font-family="monospace" font-size="10" font-weight="bold">FS 500</text>
  
  <line x1="900" y1="130" x2="900" y2="670" stroke="#ffd60a" stroke-width="1.5" stroke-dasharray="8,4"/>
  <text x="900" y="120" text-anchor="middle" fill="#ffd60a" font-family="monospace" font-size="10" font-weight="bold">FS 650</text>
  
  <line x1="1050" y1="130" x2="1050" y2="670" stroke="#ffd60a" stroke-width="1.5" stroke-dasharray="8,4"/>
  <text x="1050" y="120" text-anchor="middle" fill="#ffd60a" font-family="monospace" font-size="10" font-weight="bold">FS 800</text>
  
  <!-- Cockpit Zone -->
  <path d="M 120,400 Q 100,400 115,355 C 140,310 170,280 220,260 
           L 260,260 L 280,300 L 280,500 L 260,540 L 220,540 
           C 170,520 140,490 115,445 Q 100,400 120,400"
        fill="#7209b7" fill-opacity="0.3" stroke="#7209b7" stroke-width="2"/>
  <text x="200" y="395" text-anchor="middle" fill="white" font-family="Arial" font-size="12" font-weight="bold">COCKPIT</text>
  <text x="200" y="410" text-anchor="middle" fill="#d4a5ff" font-family="monospace" font-size="9">ZONE 100A</text>
  
  <!-- Cockpit Windows -->
  <ellipse cx="145" cy="360" rx="20" ry="12" fill="none" stroke="#88c0d0" stroke-width="1.5" transform="rotate(-15,145,360)"/>
  <ellipse cx="145" cy="440" rx="20" ry="12" fill="none" stroke="#88c0d0" stroke-width="1.5" transform="rotate(15,145,440)"/>
  <text x="115" y="363" fill="#88c0d0" font-family="monospace" font-size="6">W1</text>
  <text x="115" y="443" fill="#88c0d0" font-family="monospace" font-size="6">W2</text>
  
  <!-- Cryogenic H₂ Tank Insulation Zone -->
  <rect x="420" y="330" width="500" height="140" rx="70" ry="70" 
        fill="url(#insulationHatch)" stroke="#f72585" stroke-width="2.5" stroke-dasharray="15,5"/>
  <rect x="440" y="350" width="460" height="100" rx="50" ry="50" 
        fill="#f72585" fill-opacity="0.15" stroke="#f72585" stroke-width="1"/>
  <text x="670" y="395" text-anchor="middle" fill="#f72585" font-family="Arial" font-size="14" font-weight="bold">CRYOGENIC LH₂ TANK</text>
  <text x="670" y="412" text-anchor="middle" fill="#ffb3d9" font-family="monospace" font-size="10">INSULATION ZONE • MLI 50mm</text>
  <text x="670" y="427" text-anchor="middle" fill="#ffb3d9" font-family="monospace" font-size="9">Ø4.86m × 10.0m • 185.7 m³</text>
  
  <!-- Tank Outline (Dashed - Below Upper Shell) -->
  <ellipse cx="460" cy="400" rx="35" ry="60" fill="none" stroke="#f72585" stroke-width="1" stroke-dasharray="4,2" opacity="0.6"/>
  <ellipse cx="880" cy="400" rx="35" ry="60" fill="none" stroke="#f72585" stroke-width="1" stroke-dasharray="4,2" opacity="0.6"/>
  
  <!-- Port Passenger Lobe -->
  <path d="M 300,260 C 380,220 550,185 800,160 L 950,155 L 980,180 
           L 980,300 L 920,310 C 700,295 500,280 380,290 L 300,310 Z"
        fill="#4361ee" fill-opacity="0.2" stroke="#4361ee" stroke-width="1.5"/>
  <text x="620" y="230" text-anchor="middle" fill="#4361ee" font-family="Arial" font-size="11" font-weight="bold">PORT PASSENGER LOBE</text>
  <text x="620" y="245" text-anchor="middle" fill="#7b9ff5" font-family="monospace" font-size="8">ZONE 100B-P</text>
  
  <!-- Starboard Passenger Lobe -->
  <path d="M 300,540 C 380,580 550,615 800,640 L 950,645 L 980,620 
           L 980,500 L 920,490 C 700,505 500,520 380,510 L 300,490 Z"
        fill="#4361ee" fill-opacity="0.2" stroke="#4361ee" stroke-width="1.5"/>
  <text x="620" y="570" text-anchor="middle" fill="#4361ee" font-family="Arial" font-size="11" font-weight="bold">STARBOARD PASSENGER LOBE</text>
  <text x="620" y="585" text-anchor="middle" fill="#7b9ff5" font-family="monospace" font-size="8">ZONE 100B-S</text>
  
  <!-- ========== SYSTEMS ROUTING ========== -->
  
  <!-- ELECTRICAL HARNESSES (Yellow) - ATA 24 -->
  <!-- Port Main Harness -->
  <path d="M 200,340 C 250,310 350,270 500,240 C 650,215 800,200 950,195"
        fill="none" stroke="#ffd60a" stroke-width="4" stroke-linecap="round"/>
  <path d="M 200,340 C 250,310 350,270 500,240 C 650,215 800,200 950,195"
        fill="none" stroke="#1a1a1a" stroke-width="2" stroke-dasharray="6,4" stroke-linecap="round"/>
  <!-- Port branches -->
  <path d="M 400,258 L 420,220" fill="none" stroke="#ffd60a" stroke-width="2"/>
  <path d="M 600,225 L 620,185" fill="none" stroke="#ffd60a" stroke-width="2"/>
  <path d="M 800,205 L 820,170" fill="none" stroke="#ffd60a" stroke-width="2"/>
  
  <!-- Starboard Main Harness -->
  <path d="M 200,460 C 250,490 350,530 500,560 C 650,585 800,600 950,605"
        fill="none" stroke="#ffd60a" stroke-width="4" stroke-linecap="round"/>
  <path d="M 200,460 C 250,490 350,530 500,560 C 650,585 800,600 950,605"
        fill="none" stroke="#1a1a1a" stroke-width="2" stroke-dasharray="6,4" stroke-linecap="round"/>
  <!-- Starboard branches -->
  <path d="M 400,542 L 420,580" fill="none" stroke="#ffd60a" stroke-width="2"/>
  <path d="M 600,575 L 620,615" fill="none" stroke="#ffd60a" stroke-width="2"/>
  <path d="M 800,595 L 820,630" fill="none" stroke="#ffd60a" stroke-width="2"/>
  
  <!-- Electrical Junction Boxes -->
  <rect x="385" y="248" width="20" height="15" fill="#ffd60a" stroke="#1a1a1a" stroke-width="1"/>
  <text x="395" y="275" text-anchor="middle" fill="#ffd60a" font-family="monospace" font-size="7">EJB-1</text>
  <rect x="585" y="213" width="20" height="15" fill="#ffd60a" stroke="#1a1a1a" stroke-width="1"/>
  <text x="595" y="240" text-anchor="middle" fill="#ffd60a" font-family="monospace" font-size="7">EJB-2</text>
  
  <!-- ECS DUCTS (Cyan) - ATA 21 -->
  <!-- Port ECS Duct -->
  <path d="M 240,365 C 300,340 400,310 550,290 C 700,270 850,260 1000,258"
        fill="none" stroke="#06d6a0" stroke-width="8" stroke-opacity="0.7" stroke-linecap="round"/>
  <path d="M 240,365 C 300,340 400,310 550,290 C 700,270 850,260 1000,258"
        fill="none" stroke="#043d2e" stroke-width="4" stroke-linecap="round"/>
  <!-- Port ECS outlets -->
  <circle cx="450" cy="305" r="6" fill="#06d6a0" stroke="#043d2e" stroke-width="1.5"/>
  <circle cx="600" cy="282" r="6" fill="#06d6a0" stroke="#043d2e" stroke-width="1.5"/>
  <circle cx="750" cy="268" r="6" fill="#06d6a0" stroke="#043d2e" stroke-width="1.5"/>
  <circle cx="900" cy="260" r="6" fill="#06d6a0" stroke="#043d2e" stroke-width="1.5"/>
  
  <!-- Starboard ECS Duct -->
  <path d="M 240,435 C 300,460 400,490 550,510 C 700,530 850,540 1000,542"
        fill="none" stroke="#06d6a0" stroke-width="8" stroke-opacity="0.7" stroke-linecap="round"/>
  <path d="M 240,435 C 300,460 400,490 550,510 C 700,530 850,540 1000,542"
        fill="none" stroke="#043d2e" stroke-width="4" stroke-linecap="round"/>
  <!-- Starboard ECS outlets -->
  <circle cx="450" cy="495" r="6" fill="#06d6a0" stroke="#043d2e" stroke-width="1.5"/>
  <circle cx="600" cy="518" r="6" fill="#06d6a0" stroke="#043d2e" stroke-width="1.5"/>
  <circle cx="750" cy="532" r="6" fill="#06d6a0" stroke="#043d2e" stroke-width="1.5"/>
  <circle cx="900" cy="540" r="6" fill="#06d6a0" stroke="#043d2e" stroke-width="1.5"/>
  
  <!-- HYDRAULIC LINES (Orange) - ATA 29 -->
  <!-- Port Hydraulic -->
  <path d="M 230,350 C 280,325 380,295 520,275"
        fill="none" stroke="#ff6b35" stroke-width="3" stroke-linecap="round"/>
  <path d="M 230,350 C 280,325 380,295 520,275"
        fill="none" stroke="#ffaa80" stroke-width="1" stroke-dasharray="3,3" stroke-linecap="round"/>
  
  <!-- Starboard Hydraulic -->
  <path d="M 230,450 C 280,475 380,505 520,525"
        fill="none" stroke="#ff6b35" stroke-width="3" stroke-linecap="round"/>
  <path d="M 230,450 C 280,475 380,505 520,525"
        fill="none" stroke="#ffaa80" stroke-width="1" stroke-dasharray="3,3" stroke-linecap="round"/>
  
  <!-- Hydraulic Shutoff Valves -->
  <polygon points="515,275 525,270 525,280" fill="#ff6b35" stroke="#1a1a1a" stroke-width="1"/>
  <polygon points="515,525 525,520 525,530" fill="#ff6b35" stroke="#1a1a1a" stroke-width="1"/>
  <text x="540" y="278" fill="#ff6b35" font-family="monospace" font-size="6">HYD-SOV-1</text>
  <text x="540" y="528" fill="#ff6b35" font-family="monospace" font-size="6">HYD-SOV-2</text>
  
  <!-- ========== FIREWALL BULKHEADS ========== -->
  
  <!-- Forward Firewall (Cockpit/Cabin) -->
  <line x1="285" y1="260" x2="285" y2="540" stroke="#ff0000" stroke-width="3"/>
  <line x1="282" y1="260" x2="288" y2="260" stroke="#ff0000" stroke-width="2"/>
  <line x1="282" y1="540" x2="288" y2="540" stroke="#ff0000" stroke-width="2"/>
  <text x="292" y="310" fill="#ff0000" font-family="monospace" font-size="8" font-weight="bold">FWD FIREWALL</text>
  <text x="292" y="322" fill="#ff6666" font-family="monospace" font-size="7">BH-100-FW</text>
  
  <!-- Tank Bay Forward Firewall -->
  <line x1="400" y1="310" x2="400" y2="490" stroke="#ff0000" stroke-width="2.5"/>
  <rect x="395" y="395" width="10" height="10" fill="#ff0000" opacity="0.8"/>
  <text x="370" y="340" fill="#ff0000" font-family="monospace" font-size="7" text-anchor="end">TANK FWD</text>
  <text x="370" y="350" fill="#ff6666" font-family="monospace" font-size="6" text-anchor="end">BH-200-FW</text>
  
  <!-- Tank Bay Aft Firewall -->
  <line x1="940" y1="310" x2="940" y2="490" stroke="#ff0000" stroke-width="2.5"/>
  <rect x="935" y="395" width="10" height="10" fill="#ff0000" opacity="0.8"/>
  <text x="965" y="340" fill="#ff0000" font-family="monospace" font-size="7">TANK AFT</text>
  <text x="965" y="350" fill="#ff6666" font-family="monospace" font-size="6">BH-650-FW</text>
  
  <!-- ========== MAINTENANCE ACCESS PANELS ========== -->
  
  <!-- Port Side Access Panels -->
  <rect x="340" y="195" width="40" height="25" fill="none" stroke="#88c0d0" stroke-width="1.5" rx="3"/>
  <line x1="360" y1="195" x2="360" y2="220" stroke="#88c0d0" stroke-width="1"/>
  <text x="360" y="188" text-anchor="middle" fill="#88c0d0" font-family="monospace" font-size="7">AP-101P</text>
  
  <rect x="500" y="175" width="40" height="25" fill="none" stroke="#88c0d0" stroke-width="1.5" rx="3"/>
  <line x1="520" y1="175" x2="520" y2="200" stroke="#88c0d0" stroke-width="1"/>
  <text x="520" y="168" text-anchor="middle" fill="#88c0d0" font-family="monospace" font-size="7">AP-102P</text>
  
  <rect x="700" y="155" width="50" height="30" fill="none" stroke="#88c0d0" stroke-width="1.5" rx="3"/>
  <line x1="725" y1="155" x2="725" y2="185" stroke="#88c0d0" stroke-width="1"/>
  <line x1="700" y1="170" x2="750" y2="170" stroke="#88c0d0" stroke-width="1"/>
  <text x="725" y="148" text-anchor="middle" fill="#88c0d0" font-family="monospace" font-size="7">AP-103P</text>
  <text x="725" y="196" text-anchor="middle" fill="#5ba3c0" font-family="monospace" font-size="6">ECS ACCESS</text>
  
  <!-- Starboard Side Access Panels -->
  <rect x="340" y="580" width="40" height="25" fill="none" stroke="#88c0d0" stroke-width="1.5" rx="3"/>
  <line x1="360" y1="580" x2="360" y2="605" stroke="#88c0d0" stroke-width="1"/>
  <text x="360" y="618" text-anchor="middle" fill="#88c0d0" font-family="monospace" font-size="7">AP-101S</text>
  
  <rect x="500" y="600" width="40" height="25" fill="none" stroke="#88c0d0" stroke-width="1.5" rx="3"/>
  <line x1="520" y1="600" x2="520" y2="625" stroke="#88c0d0" stroke-width="1"/>
  <text x="520" y="638" text-anchor="middle" fill="#88c0d0" font-family="monospace" font-size="7">AP-102S</text>
  
  <rect x="700" y="615" width="50" height="30" fill="none" stroke="#88c0d0" stroke-width="1.5" rx="3"/>
  <line x1="725" y1="615" x2="725" y2="645" stroke="#88c0d0" stroke-width="1"/>
  <line x1="700" y1="630" x2="750" y2="630" stroke="#88c0d0" stroke-width="1"/>
  <text x="725" y="658" text-anchor="middle" fill="#88c0d0" font-family="monospace" font-size="7">AP-103S</text>
  
  <!-- Tank Access Panel (Top) -->
  <rect x="640" y="340" width="60" height="25" fill="none" stroke="#f72585" stroke-width="2" rx="3" stroke-dasharray="5,2"/>
  <text x="670" y="333" text-anchor="middle" fill="#f72585" font-family="monospace" font-size="7">AP-H2-001</text>
  <text x="670" y="372" text-anchor="middle" fill="#ffb3d9" font-family="monospace" font-size="6">TANK INSPECTION</text>
  
  <!-- ========== LEGEND BOX ========== -->
  <rect x="30" y="780" width="400" height="95" fill="#0d1f38" stroke="#4cc9f0" stroke-width="1"/>
  <text x="40" y="798" fill="#4cc9f0" font-family="Arial" font-size="11" font-weight="bold">LEGEND – SYSTEMS ROUTING</text>
  <line x1="30" y1="805" x2="430" y2="805" stroke="#4cc9f0" stroke-width="0.5"/>
  
  <!-- Electrical -->
  <line x1="45" y1="822" x2="85" y2="822" stroke="#ffd60a" stroke-width="4"/>
  <line x1="45" y1="822" x2="85" y2="822" stroke="#1a1a1a" stroke-width="2" stroke-dasharray="4,3"/>
  <text x="95" y="826" fill="white" font-family="monospace" font-size="9">ELECTRICAL HARNESS (ATA 24)</text>
  
  <!-- ECS -->
  <line x1="45" y1="842" x2="85" y2="842" stroke="#06d6a0" stroke-width="6" opacity="0.7"/>
  <line x1="45" y1="842" x2="85" y2="842" stroke="#043d2e" stroke-width="3"/>
  <text x="95" y="846" fill="white" font-family="monospace" font-size="9">ECS DUCT (ATA 21)</text>
  
  <!-- Hydraulic -->
  <line x1="45" y1="862" x2="85" y2="862" stroke="#ff6b35" stroke-width="3"/>
  <text x="95" y="866" fill="white" font-family="monospace" font-size="9">HYDRAULIC LINE (ATA 29)</text>
  
  <!-- Second Column -->
  <!-- Firewall -->
  <line x1="255" y1="822" x2="295" y2="822" stroke="#ff0000" stroke-width="3"/>
  <text x="305" y="826" fill="white" font-family="monospace" font-size="9">FIREWALL BULKHEAD</text>
  
  <!-- Frame Station -->
  <line x1="255" y1="842" x2="295" y2="842" stroke="#ffd60a" stroke-width="1.5" stroke-dasharray="6,3"/>
  <text x="305" y="846" fill="white" font-family="monospace" font-size="9">FRAME STATION (FS)</text>
  
  <!-- Access Panel -->
  <rect x="255" y="855" width="30" height="15" fill="none" stroke="#88c0d0" stroke-width="1.5" rx="2"/>
  <text x="305" y="866" fill="white" font-family="monospace" font-size="9">ACCESS PANEL</text>
  
  <!-- H2 Insulation -->
  <rect x="45" y="875" width="40" height="3" fill="url(#insulationHatch)" stroke="#f72585" stroke-width="1"/>
  <text x="95" y="880" fill="white" font-family="monospace" font-size="9">H₂ TANK INSULATION ZONE</text>
  
  <!-- ========== SCALE BAR ========== -->
  <g transform="translate(480, 780)">
    <text x="80" y="12" text-anchor="middle" fill="#4cc9f0" font-family="monospace" font-size="10">SCALE (METERS)</text>
    <rect x="0" y="18" width="40" height="8" fill="white"/>
    <rect x="40" y="18" width="40" height="8" fill="#1a1a1a" stroke="white" stroke-width="0.5"/>
    <rect x="80" y="18" width="40" height="8" fill="white"/>
    <rect x="120" y="18" width="40" height="8" fill="#1a1a1a" stroke="white" stroke-width="0.5"/>
    <text x="0" y="38" text-anchor="middle" fill="white" font-family="monospace" font-size="8">0</text>
    <text x="40" y="38" text-anchor="middle" fill="white" font-family="monospace" font-size="8">2</text>
    <text x="80" y="38" text-anchor="middle" fill="white" font-family="monospace" font-size="8">4</text>
    <text x="120" y="38" text-anchor="middle" fill="white" font-family="monospace" font-size="8">6</text>
    <text x="160" y="38" text-anchor="middle" fill="white" font-family="monospace" font-size="8">8m</text>
  </g>
  
  <!-- ========== NOTES ========== -->
  <rect x="680" y="780" width="160" height="95" fill="#0d1f38" stroke="#4cc9f0" stroke-width="1"/>
  <text x="690" y="798" fill="#4cc9f0" font-family="Arial" font-size="10" font-weight="bold">NOTES:</text>
  <line x1="680" y1="805" x2="840" y2="805" stroke="#4cc9f0" stroke-width="0.5"/>
  <text x="690" y="820" fill="white" font-family="monospace" font-size="8">1. ALL DIMS IN MM UNLESS NOTED</text>
  <text x="690" y="835" fill="white" font-family="monospace" font-size="8">2. H₂ TANK: Ø4860 × 10000mm</text>
  <text x="690" y="850" fill="white" font-family="monospace" font-size="8">3. MLI INSULATION: 50mm THK</text>
  <text x="690" y="865" fill="white" font-family="monospace" font-size="8">4. SEE 53-IN-1001 FOR DETAILS</text>
  
  <!-- Directional Indicators -->
  <g transform="translate(1080, 700)">
    <circle cx="0" cy="0" r="35" fill="none" stroke="#4cc9f0" stroke-width="1"/>
    <line x1="0" y1="-30" x2="0" y2="-15" stroke="#4cc9f0" stroke-width="2" marker-end="url(#arrowhead)"/>
    <text x="0" y="-38" text-anchor="middle" fill="#4cc9f0" font-family="Arial" font-size="12" font-weight="bold">FWD</text>
    <text x="0" y="10" text-anchor="middle" fill="#88c0d0" font-family="monospace" font-size="8">AIRCRAFT</text>
    <text x="0" y="22" text-anchor="middle" fill="#88c0d0" font-family="monospace" font-size="8">CENTERLINE</text>
    <line x1="-25" y1="0" x2="25" y2="0" stroke="#88c0d0" stroke-width="0.5" stroke-dasharray="3,2"/>
  </g>
  
  <!-- Centerline Reference -->
  <line x1="100" y1="400" x2="1100" y2="400" stroke="#88c0d0" stroke-width="0.8" stroke-dasharray="15,5,3,5"/>
  <text x="1110" y="403" fill="#88c0d0" font-family="monospace" font-size="8">℄</text>
  
</svg>